<?xml version="1.0" encoding="UTF-8" standalone="no"?>
<!-- Created with Inkscape (http://www.inkscape.org/) -->

<svg
   version="1.1"
   id="svg1"
   width="3000"
   height="3000"
   viewBox="0 0 3000 3000"
   sodipodi:docname="Maze4.svg"
   inkscape:version="1.3 (0e150ed6c4, 2023-07-21)"
   xmlns:inkscape="http://www.inkscape.org/namespaces/inkscape"
   xmlns:sodipodi="http://sodipodi.sourceforge.net/DTD/sodipodi-0.dtd"
   xmlns:xlink="http://www.w3.org/1999/xlink"
   xmlns="http://www.w3.org/2000/svg"
   xmlns:svg="http://www.w3.org/2000/svg">
  <defs
     id="defs1" />
  <sodipodi:namedview
     id="namedview1"
     pagecolor="#505050"
     bordercolor="#eeeeee"
     borderopacity="1"
     inkscape:showpageshadow="0"
     inkscape:pageopacity="0"
     inkscape:pagecheckerboard="0"
     inkscape:deskcolor="#505050"
     inkscape:zoom="0.271"
     inkscape:cx="1498.155"
     inkscape:cy="1500"
     inkscape:window-width="1920"
     inkscape:window-height="1009"
     inkscape:window-x="1912"
     inkscape:window-y="-8"
     inkscape:window-maximized="1"
     inkscape:current-layer="g1" />
  <g
     inkscape:groupmode="layer"
     inkscape:label="Image"
     id="g1">
    <image
       width="3000"
       height="3000"
       preserveAspectRatio="none"
       xlink:href="Maze4.png"
       id="image1" />
    <path
       style="fill:#000000"
       d="M 14.619614,3000 0,2871.3875 V 0 L 36,110.30866 V 495 h 1296 l 6.8,-156 74.89,144.13063 L 1922.9519,489 2010,555.19697 2008.3347,2083.0105 1851.3305,2085.8296 1848,636 H 36 V 2481 H 732 V 1806 L 387.33054,1803.8296 450.19697,1737 791.2,1731 794.66946,2559.8296 36,2568 v 411.8 L 254.93204,2973 H 2973 V 1472 l -399,-2.0704 -1.6653,1141.0809 L 1299.3811,2591.9152 1296,1846.1251 V 1140 L 357.33054,1137.8296 369.28528,1017 H 1397.2 l 0.8,1452 H 2508 V 447.8 l 66,59.39697 V 1420.0704 L 2973,1418 2972.946,64.5 2578.4425,74.222506 2574.2869,232.91479 2477.9992,209.22086 2472.6281,72 H 810 L 793.42061,198 741.69004,74.63995 552,18.525144 686.07923,0 H 2991.8548 L 3000,402.65155 V 2994.1538 L 2739.5953,3000 41.656918,2998.8895 Z"
       id="path1"
       sodipodi:nodetypes="cccccccccccccccccccccccccccccccccccccccccccccccccccccccc" />
  </g>
</svg>
