<?xml version="1.0" encoding="UTF-8" standalone="no"?>
<!-- Created with Inkscape (http://www.inkscape.org/) -->

<svg
   version="1.1"
   id="svg1"
   width="3000"
   height="3000"
   viewBox="0 0 3000 3000"
   sodipodi:docname="Maze3.svg"
   inkscape:version="1.3 (0e150ed6c4, 2023-07-21)"
   xmlns:inkscape="http://www.inkscape.org/namespaces/inkscape"
   xmlns:sodipodi="http://sodipodi.sourceforge.net/DTD/sodipodi-0.dtd"
   xmlns:xlink="http://www.w3.org/1999/xlink"
   xmlns="http://www.w3.org/2000/svg"
   xmlns:svg="http://www.w3.org/2000/svg">
  <defs
     id="defs1" />
  <sodipodi:namedview
     id="namedview1"
     pagecolor="#505050"
     bordercolor="#eeeeee"
     borderopacity="1"
     inkscape:showpageshadow="0"
     inkscape:pageopacity="0"
     inkscape:pagecheckerboard="0"
     inkscape:deskcolor="#505050"
     inkscape:zoom="0.271"
     inkscape:cx="1498.155"
     inkscape:cy="1500"
     inkscape:window-width="1920"
     inkscape:window-height="1009"
     inkscape:window-x="1912"
     inkscape:window-y="-8"
     inkscape:window-maximized="1"
     inkscape:current-layer="g1" />
  <g
     inkscape:groupmode="layer"
     inkscape:label="Image"
     id="g1">
    <image
       width="3000"
       height="3000"
       preserveAspectRatio="none"
       xlink:href="..%5C..%5C..%5C..%5CUsers%5Carjen%5CDesktop%5CMaze3.png"
       id="image1" />
    <path
       style="fill:#000000"
       d="M 0,1500 V 0 L 36,110.30866 V 495 h 1296 l 6.8,-156 71.2,155.20074 84.8528,0.79926 357.9884,1.38007 157.1588,58.8169 -1.6653,1527.81353 -157.0042,2.8191 L 1848,636 H 36 V 2481 H 732 V 1806 L 387.33054,1803.8296 383.77631,1733.31 791.2,1731 794.66946,2559.8296 36,2568 v 405 H 2973 V 72 L 2578.4433,74.222506 2574.2877,232.91479 2478,209.22086 2472.6281,72 H 810 L 793.42061,198 741.69004,67.259876 632.07649,72 552,15.125144 696.24979,0 H 3000 V 3000 H 0 Z m 2513.4202,1114.8555 -124.2141,-22.7564 -1089.825,-0.1839 L 1296,1846.1251 V 1140 l -938.66946,-2.1704 0.88463,-113.4495 L 1397.2,1017 1398,1156.07 V 2469 H 2508 V 447.8 l 66,59.39697 -1.6653,2077.98323 z"
       id="path1"
       sodipodi:nodetypes="cccccccccccccccccccccccccccccccccccccccccccccccccccccc" />
  </g>
</svg>
